<?xml version="1.0" encoding="utf-8"?>
<!-- Generator: Adobe Illustrator 24.2.1, SVG Export Plug-In . SVG Version: 6.00 Build 0)  -->
<svg version="1.1" xmlns="http://www.w3.org/2000/svg" xmlns:xlink="http://www.w3.org/1999/xlink" x="0px" y="0px"
	 viewBox="0 0 841.9 841.9" style="enable-background:new 0 0 841.9 841.9;" xml:space="preserve">
<style type="text/css">
	.st0{fill:#FFFFFF;}
	.st1{display:none;}
	.st2{display:inline;}
	.st3{fill:#010202;}
</style>
<g id="White">
	<g>
		<g>
			<g>
				<g>
					<path class="st0" d="M263,443.6l1.5-0.7c0.1-0.1,0.3-0.1,0.4-0.2c3.2-1.4,7.9-3.6,13.9-6.3c11.8-5.5,28.6-13.4,48.5-23.4
						c39.7-20.1,91.9-48.3,140.9-81.9c24.5-16.8,48.2-34.9,68.7-54.1c20.4-19.1,37.7-39.5,48-59.7c5.2-10.1,8.6-20.1,10-29.2
						c1.4-9.1,1-17.2-0.3-23.6c-1.3-6.4-3.1-11.1-4.5-14.3c-1.5-3.1-2.3-4.7-2.3-4.7s0.6,1.7,1.7,5c1,3.2,2.2,8.1,2.7,14.4
						c0.5,6.2-0.1,13.9-2.4,22.2c-2.3,8.3-6.6,17.1-12.5,25.8c-11.8,17.6-30.3,34.7-51.8,50.5c2.5-1.8,4.9-3.7,7.3-5.5L427.3,68.6
						l-227.8,397C222.6,459.3,244.5,451.2,263,443.6z M498.8,281.2c-14.5,9.1-29.7,17.6-45.3,25.7c-51,26.5-104.7,47.7-145.3,62.4
						c-2.8,1-5.4,1.9-8,2.9l126.5-220.4L498.8,281.2z M299.7,372.5c-3.2,1.1-6.3,2.2-9.4,3.3C293.3,374.7,296.4,373.6,299.7,372.5z"
						/>
				</g>
				<g>
					<path class="st0" d="M573.8,331.6C573.8,331.6,573.8,331.6,573.8,331.6c1.6-1.7,3.2-3.3,4.7-5c17.2-18.9,32.8-39.1,44.6-61.1
						c1.4-2.8,2.8-5.6,4.2-8.3c1.3-2.9,2.5-5.7,3.8-8.5c2.1-5.3,4.3-11,6.2-16.6c3.7-11.2,6.7-22.4,8.4-33.7
						c3.6-22.3,1.9-44.9-6.3-63.3c-1.6-3.7-3.5-7.1-5.5-10.4c-23.1-36.6-60.6-41.6-60.6-41.6l0,0c8.8,3.7,18.6,8.8,28.2,16.1
						c12,9.1,23.6,22.1,29.6,39.2c6.2,17,6.4,37.2,1.6,57.5c-2.3,10.2-5.8,20.4-10,30.6c-2.1,5.1-4.4,10-7,15.4
						c-1.3,2.4-2.6,4.9-3.8,7.3c-1.4,2.4-2.9,4.8-4.3,7.3c-12.1,19.2-27.9,37.2-45.5,53.9c-17.6,16.8-36.9,32.5-56.9,47.2
						c-40.1,29.5-83,55.5-124,78.3c-24.2,13.4-47.7,25.6-70,36.7l0,0l-0.5,0.2c-15.4,7.7-30.1,14.8-44,21.3
						c-11.9,5.6-23.1,10.7-33.5,15.4L152.2,548l-24.4,42.5h57.5v0.1c0.1,0,0.1-0.1,0.2-0.1h532.6L573.8,331.6z M264.8,549.5
						c7.5-4.1,15.3-8.4,23.5-12.9c33.5-18.7,72.2-41.4,112.6-67.5c40.3-26.2,82.4-55.8,121.8-89.2c7.1-6,14-12.2,20.8-18.5
						l104.8,188.1L264.8,549.5C264.8,549.5,264.8,549.5,264.8,549.5z"/>
				</g>
			</g>
			<circle class="st0" cx="530.4" cy="100.1" r="31.5"/>
		</g>
		<g>
			<path class="st0" d="M194.2,725.3l-28.1-58.9h-22.8l49,102.6c0.3,0.7,1.1,1.2,1.9,1.2l0,0c0.8,0,1.5-0.5,1.9-1.2l49-102.6h-22.8
				L194.2,725.3z"/>
			<path class="st0" d="M69.9,664.3c-29.8,0-54.1,24.3-54.1,54.1s24.3,54.1,54.1,54.1s54.1-24.3,54.1-54.1S99.7,664.3,69.9,664.3z
				 M69.9,750.8c-17.9,0-32.4-14.5-32.4-32.4c0-17.9,14.5-32.4,32.4-32.4c17.9,0,32.4,14.5,32.4,32.4
				C102.3,736.2,87.8,750.8,69.9,750.8z"/>
			<g>
				<path class="st0" d="M721.4,713.9l28,58.5H772l-48.7-102c-0.3-0.7-1.1-1.2-1.9-1.2l0,0c-0.8,0-1.5,0.5-1.9,1.2l-48.7,102h22.6
					L721.4,713.9z"/>
				<rect x="805.4" y="669.3" class="st0" width="21.5" height="103.1"/>
			</g>
			<path class="st0" d="M480.7,700c0-18.5-15-33.5-33.5-33.5H445h-42.2v103.8h21.6v-36.8h16.8l19.5,36.8h22l-21.2-40.1
				C472.9,724.8,480.7,713.3,480.7,700z M424.5,685.9H445c7.7,0,14.1,6.3,14.1,14.1c0,7.7-6.3,14.1-14.1,14.1h-20.5V685.9z"/>
			<polygon class="st0" points="285.6,666.4 285.6,770.2 351.5,770.2 351.5,750.8 307.2,750.8 307.2,728.1 340.7,728.1 340.7,708.6 
				307.2,708.6 307.2,685.9 351.5,685.9 351.5,666.4 			"/>
			<polygon class="st0" points="528.3,666.4 528.3,685.9 556.4,685.9 556.4,770.2 578,770.2 578,685.9 606.1,685.9 606.1,666.4 			
				"/>
		</g>
	</g>
</g>
<g id="Black" class="st1">
	<g class="st2">
		<g>
			<g>
				<g>
					<path class="st3" d="M263,443.6l1.5-0.7c0.1-0.1,0.3-0.1,0.4-0.2c3.2-1.4,7.9-3.6,13.9-6.3c11.8-5.5,28.6-13.4,48.5-23.4
						c39.7-20.1,91.9-48.3,140.9-81.9c24.5-16.8,48.2-34.9,68.7-54.1c20.4-19.1,37.7-39.5,48-59.7c5.2-10.1,8.6-20.1,10-29.2
						c1.4-9.1,1-17.2-0.3-23.6c-1.3-6.4-3.1-11.1-4.5-14.3c-1.5-3.1-2.3-4.7-2.3-4.7s0.6,1.7,1.7,5c1,3.2,2.2,8.1,2.7,14.4
						c0.5,6.2-0.1,13.9-2.4,22.2c-2.3,8.3-6.6,17.1-12.5,25.8c-11.8,17.6-30.3,34.7-51.8,50.5c2.5-1.8,4.9-3.7,7.3-5.5L427.3,68.6
						l-227.8,397C222.6,459.3,244.5,451.2,263,443.6z M498.8,281.2c-14.5,9.1-29.7,17.6-45.3,25.7c-51,26.5-104.7,47.7-145.3,62.4
						c-2.8,1-5.4,1.9-8,2.9l126.5-220.4L498.8,281.2z M299.7,372.5c-3.2,1.1-6.3,2.2-9.4,3.3C293.3,374.7,296.4,373.6,299.7,372.5z"
						/>
				</g>
				<g>
					<path class="st3" d="M573.8,331.6C573.8,331.6,573.8,331.6,573.8,331.6c1.6-1.7,3.2-3.3,4.7-5c17.2-18.9,32.8-39.1,44.6-61.1
						c1.4-2.8,2.8-5.6,4.2-8.3c1.3-2.9,2.5-5.7,3.8-8.5c2.1-5.3,4.3-11,6.2-16.6c3.7-11.2,6.7-22.4,8.4-33.7
						c3.6-22.3,1.9-44.9-6.3-63.3c-1.6-3.7-3.5-7.1-5.5-10.4c-23.1-36.6-60.6-41.6-60.6-41.6l0,0c8.8,3.7,18.6,8.8,28.2,16.1
						c12,9.1,23.6,22.1,29.6,39.2c6.2,17,6.4,37.2,1.6,57.5c-2.3,10.2-5.8,20.4-10,30.6c-2.1,5.1-4.4,10-7,15.4
						c-1.3,2.4-2.6,4.9-3.8,7.3c-1.4,2.4-2.9,4.8-4.3,7.3c-12.1,19.2-27.9,37.2-45.5,53.9c-17.6,16.8-36.9,32.5-56.9,47.2
						c-40.1,29.5-83,55.5-124,78.3c-24.2,13.4-47.7,25.6-70,36.7l0,0l-0.5,0.2c-15.4,7.7-30.1,14.8-44,21.3
						c-11.9,5.6-23.1,10.7-33.5,15.4L152.2,548l-24.4,42.5h57.5v0.1c0.1,0,0.1-0.1,0.2-0.1h532.6L573.8,331.6z M264.8,549.5
						c7.5-4.1,15.3-8.4,23.5-12.9c33.5-18.7,72.2-41.4,112.6-67.5c40.3-26.2,82.4-55.8,121.8-89.2c7.1-6,14-12.2,20.8-18.5
						l104.8,188.1L264.8,549.5C264.8,549.5,264.8,549.5,264.8,549.5z"/>
				</g>
			</g>
			<circle class="st3" cx="530.4" cy="100.1" r="31.5"/>
		</g>
		<g>
			<path class="st3" d="M194.2,725.3l-28.1-58.9h-22.8l49,102.6c0.3,0.7,1.1,1.2,1.9,1.2l0,0c0.8,0,1.5-0.5,1.9-1.2l49-102.6h-22.8
				L194.2,725.3z"/>
			<path class="st3" d="M69.9,664.3c-29.8,0-54.1,24.3-54.1,54.1s24.3,54.1,54.1,54.1s54.1-24.3,54.1-54.1S99.7,664.3,69.9,664.3z
				 M69.9,750.8c-17.9,0-32.4-14.5-32.4-32.4c0-17.9,14.5-32.4,32.4-32.4c17.9,0,32.4,14.5,32.4,32.4
				C102.3,736.2,87.8,750.8,69.9,750.8z"/>
			<g>
				<path class="st3" d="M721.4,713.9l28,58.5H772l-48.7-102c-0.3-0.7-1.1-1.2-1.9-1.2l0,0c-0.8,0-1.5,0.5-1.9,1.2l-48.7,102h22.6
					L721.4,713.9z"/>
				<rect x="805.4" y="669.3" class="st3" width="21.5" height="103.1"/>
			</g>
			<path class="st3" d="M480.7,700c0-18.5-15-33.5-33.5-33.5H445h-42.2v103.8h21.6v-36.8h16.8l19.5,36.8h22l-21.2-40.1
				C472.9,724.8,480.7,713.3,480.7,700z M424.5,685.9H445c7.7,0,14.1,6.3,14.1,14.1c0,7.7-6.3,14.1-14.1,14.1h-20.5V685.9z"/>
			<polygon class="st3" points="285.6,666.4 285.6,770.2 351.5,770.2 351.5,750.8 307.2,750.8 307.2,728.1 340.7,728.1 340.7,708.6 
				307.2,708.6 307.2,685.9 351.5,685.9 351.5,666.4 			"/>
			<polygon class="st3" points="528.3,666.4 528.3,685.9 556.4,685.9 556.4,770.2 578,770.2 578,685.9 606.1,685.9 606.1,666.4 			
				"/>
		</g>
	</g>
</g>
</svg>
